<?xml version="1.0" encoding="utf-8"?>
<!-- Generator: Adobe Illustrator 16.0.0, SVG Export Plug-In . SVG Version: 6.00 Build 0)  -->
<!DOCTYPE svg PUBLIC "-//W3C//DTD SVG 1.1//EN" "http://www.w3.org/Graphics/SVG/1.1/DTD/svg11.dtd">
<svg version="1.1" id="Layer_1" xmlns="http://www.w3.org/2000/svg" xmlns:xlink="http://www.w3.org/1999/xlink" x="0px" y="0px"
	 width="200px" height="200px" viewBox="0 0 200 200" enable-background="new 0 0 200 200" xml:space="preserve">
<g>
	<path fill="#FCFCFC" d="M65.7,127.042c-8.106,0-14.7-6.616-14.7-14.75s6.594-14.75,14.7-14.75c8.106,0,14.7,6.616,14.7,14.75
		S73.806,127.042,65.7,127.042z M65.7,102.458c-5.404,0-9.8,4.41-9.8,9.833s4.396,9.833,9.8,9.833c5.404,0,9.8-4.41,9.8-9.833
		S71.104,102.458,65.7,102.458z"/>
	<path fill="#FCFCFC" d="M100,90.167c-8.106,0-14.7-6.616-14.7-14.75s6.594-14.75,14.7-14.75c8.105,0,14.7,6.616,14.7,14.75
		S108.105,90.167,100,90.167z M100,65.583c-5.404,0-9.8,4.41-9.8,9.833s4.396,9.833,9.8,9.833c5.404,0,9.8-4.41,9.8-9.833
		S105.404,65.583,100,65.583z"/>
	<path fill="#FCFCFC" d="M134.3,141.792c-8.106,0-14.7-6.616-14.7-14.75s6.594-14.75,14.7-14.75s14.7,6.616,14.7,14.75
		S142.406,141.792,134.3,141.792z M134.3,117.208c-5.403,0-9.8,4.41-9.8,9.833s4.396,9.833,9.8,9.833c5.404,0,9.8-4.41,9.8-9.833
		S139.704,117.208,134.3,117.208z"/>
	<path fill="#FCFCFC" d="M68.15,41v59h-4.9V41H68.15z"/>
	<path fill="#FCFCFC" d="M102.45,41v22.125h-4.9V41H102.45z"/>
	<path fill="#FCFCFC" d="M136.75,41v73.75h-4.9V41H136.75z"/>
	<path fill="#FCFCFC" d="M68.15,131.958V159h-4.9v-27.042H68.15z"/>
	<path fill="#FCFCFC" d="M102.45,95.083V159h-4.9V95.083H102.45z"/>
	<path fill="#FCFCFC" d="M136.75,146.708V159h-4.9v-12.292H136.75z"/>
</g>
</svg>
