<?xml version="1.0" encoding="utf-8"?>
<!-- Generator: Adobe Illustrator 16.0.0, SVG Export Plug-In . SVG Version: 6.00 Build 0)  -->
<!DOCTYPE svg PUBLIC "-//W3C//DTD SVG 1.1//EN" "http://www.w3.org/Graphics/SVG/1.1/DTD/svg11.dtd">
<svg version="1.1" id="Layer_1" xmlns="http://www.w3.org/2000/svg" xmlns:xlink="http://www.w3.org/1999/xlink" x="0px" y="0px"
	 width="200px" height="200px" viewBox="0 0 200 200" enable-background="new 0 0 200 200" xml:space="preserve">
<g>
	<path fill="#FCFCFC" d="M91.654,161.622h-0.019c-1.764-0.013-3.143-1.29-3.282-3.041l-7.974-98.998L69.516,145.99
		c-0.209,1.682-1.587,2.898-3.288,2.898h-0.013c-1.707-0.009-3.086-1.24-3.275-2.931l-7.569-66.755l-6.108,53.436
		c-0.19,1.7-1.518,2.908-3.231,2.937c-1.84,0.069-3.086-1.134-3.332-2.82l-5.925-40.203l-6.513,25
		c-0.343,1.35-1.525,2.317-2.915,2.388c-1.22,0.107-2.649-0.744-3.149-2.051l-5.274-13.912l-5.704,12.017
		c-0.377,0.806-1.333,1.159-2.144,0.792c-0.807-0.367-1.165-1.318-0.798-2.125c0.002-0.006,0.005-0.012,0.008-0.018l5.558-12.022
		c0.563-1.222,1.77-1.962,3.13-1.921c1.332,0.045,2.505,0.888,2.972,2.136l5.28,13.916l6.26-25.003
		c0.398-1.549,1.973-2.533,3.377-2.489c1.583,0.066,2.892,1.253,3.111,2.821l5.925,40.206l6.102-53.441
		c0.183-1.701,1.568-2.937,3.288-2.94c1.72,0,3.105,1.234,3.294,2.934l7.569,66.755l10.863-86.41
		c0.215-1.716,1.726-2.975,3.358-2.896c1.733,0.035,3.092,1.316,3.231,3.038l7.974,98.998l10.889-116.943
		c0.158-1.745,1.543-3,3.295-3h0.043c1.771,0.022,3.149,1.319,3.264,3.089l7.524,115.732l9.132-91.635
		c0.17-1.773,1.676-2.912,3.383-2.985c1.789,0.047,3.143,1.372,3.225,3.155l3.479,75.16l8.264-61.356
		c0.221-1.678,1.593-2.874,3.281-2.874h0.09c1.726,0.044,3.078,1.322,3.219,3.041l4.293,52.548l7.266-40.228
		c0.264-1.56,1.604-2.708,3.187-2.729c1.556-0.095,2.952,1.025,3.307,2.584l5.874,24.246c0.006-0.006,0.006-0.009,0.014-0.017
		c0.019-0.024,0.076-0.088,0.139-0.16c0.765-1.641,5.824-12.531,6.07-13.096c0.397-1.011,1.567-1.742,2.789-1.742h0.062
		c1.113,0.021,2.023,0.662,2.384,1.672c0.134,0.404,3.716,11.629,3.819,11.982c0.104,0.353,0.104,1.504-0.987,1.881
		c-1.317,0.455-1.929-0.373-2.098-0.903c-0.169-0.531-2.466-7.755-3.427-10.752c-0.836,1.901-3.49,7.618-5.773,12.522
		c-0.091,0.199-0.223,0.377-0.387,0.523c-0.473,0.604-1.334,1.688-2.725,1.596c-1.005-0.044-1.916-0.662-2.705-1.842
		c-0.107-0.158-0.185-0.335-0.229-0.521l-5.975-24.659l-7.272,40.209c-0.291,1.658-1.776,2.824-3.415,2.729
		c-1.669-0.061-3.023-1.369-3.143-3.035l-4.293-52.548l-8.271,61.357c-0.234,1.737-1.639,3.044-3.427,2.87
		c-1.759-0.075-3.087-1.4-3.168-3.148l-3.478-75.163l-9.125,91.636c-0.171,1.734-1.549,2.98-3.293,2.98h-0.058
		c-1.771-0.027-3.144-1.331-3.25-3.092l-7.524-115.729l-10.89,116.94C94.796,160.359,93.405,161.622,91.654,161.622L91.654,161.622z
		"/>
</g>
</svg>
